<svg xmlns="http://www.w3.org/2000/svg" width="26.799" height="33.23" viewBox="0 0 26.799 33.23"><defs><style>.a{fill:#0babc6;}</style></defs><path class="a" d="M30.587,1H10.212A3.215,3.215,0,0,0,7,4.212V21.294a3.227,3.227,0,0,0,.994,2.323l10.188,9.725a3.212,3.212,0,0,0,4.435,0l10.188-9.725a3.227,3.227,0,0,0,.994-2.323V4.212A3.215,3.215,0,0,0,30.587,1Zm2.14,20.294a2.149,2.149,0,0,1-.662,1.547L21.876,32.567a2.19,2.19,0,0,1-2.954,0L8.734,22.842a2.149,2.149,0,0,1-.662-1.547V4.212a2.142,2.142,0,0,1,2.14-2.14H30.587a2.142,2.142,0,0,1,2.14,2.14ZM20.4,20.628l-9.97-9.445H9.144V21.6l9.962,9.437a1.88,1.88,0,0,0,2.587,0L31.655,21.6V11.184H30.37Zm10.184-4.315L20.4,25.988l-5.527-5.25-.738.777L20.4,27.466l10.184-9.674v3.346l-9.627,9.12a.829.829,0,0,1-1.113,0l-9.627-9.121V17.791l3.044,2.892L14,19.907l-3.782-3.593V12.458L20.4,22.106l10.184-9.648ZM16.8,14.731,20.4,13.1,24,14.731l-.363-4.093,2.558-3.059-3.784-.895L20.4,3.125,18.392,6.685l-3.784.895,2.558,3.059Zm-.259-6.508,2.552-.6,1.3-2.313,1.3,2.312,2.552.6-1.73,2.068L22.766,13,20.4,11.923,18.033,13l.24-2.706Z" transform="translate(-7 -1)"/></svg>