<svg xmlns="http://www.w3.org/2000/svg" width="75.853" height="94.057" viewBox="0 0 75.853 94.057"><defs><style>.a{fill:#3292e1;}</style></defs><path class="a" d="M73.762,1H16.09A9.1,9.1,0,0,0,7,10.09V58.441a9.134,9.134,0,0,0,2.813,6.575L38.649,92.542a9.091,9.091,0,0,0,12.554,0L80.04,65.016a9.134,9.134,0,0,0,2.813-6.575V10.09A9.1,9.1,0,0,0,73.762,1Zm6.056,57.441a6.082,6.082,0,0,1-1.874,4.38L49.106,90.349a6.2,6.2,0,0,1-8.36,0L11.908,62.821a6.082,6.082,0,0,1-1.874-4.38V10.09A6.063,6.063,0,0,1,16.09,4.034H73.762a6.063,6.063,0,0,1,6.056,6.056ZM44.926,56.557,16.706,29.824H13.068V59.3l28.2,26.712a5.321,5.321,0,0,0,7.321,0L76.784,59.3V29.824H73.146ZM73.75,44.344,44.926,71.726,29.282,56.865l-2.089,2.2L44.926,75.91,73.75,48.528V58L46.5,83.811a2.348,2.348,0,0,1-3.149,0L16.1,58V48.526l8.617,8.186,2.089-2.2L16.1,44.344V33.431L44.926,60.738,73.75,33.431Zm-39-4.48,10.179-4.616,10.179,4.616L54.077,28.28l7.241-8.659-10.71-2.532L44.926,7.015,39.243,17.09l-10.71,2.532,7.241,8.659Zm-.734-18.42,7.223-1.708,3.691-6.546,3.692,6.545,7.223,1.708-4.9,5.853.678,7.658-6.7-3.036-6.7,3.037.678-7.658Z" transform="translate(-7 -0.999)"/></svg>