<svg xmlns="http://www.w3.org/2000/svg" width="21.483" height="37" viewBox="0 0 21.483 37"><defs><style>.a{fill:#0babc6;}</style></defs><path class="a" d="M25.339,32.032H24.145V30.839h1.194ZM35.484,2.194V4.581A1.2,1.2,0,0,1,34.29,5.774V18.022l-7.758,5.371v1.478h.828l-1.3,3.9a2.945,2.945,0,0,1,.325.177l2.155-2.156.844.844-2.155,2.156a2.992,2.992,0,0,1,.177.325l3.9-1.3v5.237l-3.9-1.3a2.883,2.883,0,0,1-.177.325l2.155,2.156-.844.844-2.155-2.156a2.946,2.946,0,0,1-.325.177l1.3,3.9H22.124l1.3-3.9a2.944,2.944,0,0,1-.325-.177l-2.155,2.156-.844-.844,2.155-2.156a2.99,2.99,0,0,1-.177-.325l-3.9,1.3V28.817l3.9,1.3a2.882,2.882,0,0,1,.177-.325L20.1,27.638l.844-.844L23.1,28.95a2.945,2.945,0,0,1,.325-.177l-1.3-3.9h.828V23.393l-7.758-5.371V5.774A1.2,1.2,0,0,1,14,4.581V2.194A1.2,1.2,0,0,1,15.194,1h19.1A1.2,1.2,0,0,1,35.484,2.194Zm-19.1,15.2,2.782,1.926,3.68-6.083L18.434,5.774H16.387ZM19.82,5.774l8.733,14.768.825-.571-8.588-14.2Zm4.262,9.551-.544-.92L20.152,20l.825.572Zm-1.13,6.616v-2.36l-.99,1.674Zm0,9.494a1.79,1.79,0,1,0,1.79-1.79A1.793,1.793,0,0,0,22.952,31.435Zm-1.177.161c0-.054-.016-.106-.016-.161s.013-.107.016-.161l-2.4-.8V32.4ZM24.9,34.4c-.054,0-.106.016-.161.016s-.107-.013-.161-.016l-.8,2.4H25.7Zm2.807-3.129c0,.054.016.106.016.161s-.013.107-.016.161l2.4.8V30.473ZM24.9,28.468l.8-2.4H23.779l.8,2.4c.054,0,.106-.016.161-.016S24.849,28.465,24.9,28.468Zm.436-3.6V17.45l-.563-.952-.63,1.066v7.308Zm1.194-2.93,1.038-.719-1.038-1.755ZM33.1,5.774H22.186L30.362,19.29,33.1,17.4Zm1.194-1.194V2.194h-19.1V4.581ZM27.129,8.161V6.968H25.935V8.161Zm2.387-1.194H28.323V8.161h1.194Zm2.387,0H30.71V8.161H31.9Z" transform="translate(-14 -1)"/></svg>