<svg xmlns="http://www.w3.org/2000/svg" width="54.613" height="94.057" viewBox="0 0 54.613 94.057"><defs><style>.a{fill:#3292e1;}</style></defs><path class="a" d="M42.824,79.886H39.79V76.852h3.034ZM68.614,4.034V10.1a3.037,3.037,0,0,1-3.034,3.034V44.272L45.858,57.926v3.756h2.1L44.656,71.6a7.483,7.483,0,0,1,.827.449l5.478-5.48,2.145,2.145-5.478,5.48a7.6,7.6,0,0,1,.449.825l9.917-3.306V85.025l-9.917-3.307a7.327,7.327,0,0,1-.449.825l5.478,5.48-2.145,2.145-5.478-5.48a7.487,7.487,0,0,1-.827.449l3.306,9.92H34.652l3.306-9.917a7.484,7.484,0,0,1-.827-.449l-5.478,5.48-2.145-2.145,5.478-5.48a7.6,7.6,0,0,1-.449-.825l-9.917,3.306V71.714l9.917,3.307a7.327,7.327,0,0,1,.449-.825l-5.478-5.48,2.145-2.145,5.478,5.48a7.485,7.485,0,0,1,.827-.449l-3.306-9.92h2.1V57.926L17.034,44.272V13.136A3.037,3.037,0,0,1,14,10.1V4.034A3.037,3.037,0,0,1,17.034,1H65.58A3.037,3.037,0,0,1,68.614,4.034ZM20.068,42.682l7.072,4.9,9.354-15.463L25.272,13.136h-5.2ZM28.8,13.136,51,50.677l2.1-1.452L31.264,13.136Zm10.833,24.28-1.382-2.338-8.608,14.23,2.1,1.453ZM36.756,54.235v-6l-2.517,4.255Zm0,24.135a4.551,4.551,0,1,0,4.551-4.551A4.557,4.557,0,0,0,36.756,78.369Zm-2.993.41c-.008-.138-.041-.269-.041-.41s.033-.272.041-.41l-6.109-2.036v4.892Zm7.954,7.135c-.138.008-.27.041-.41.041s-.272-.033-.41-.041L38.86,92.023h4.894Zm7.135-7.954c.008.138.041.269.041.41s-.033.272-.041.41l6.109,2.036V75.922Zm-7.135-7.135,2.037-6.109H38.86L40.9,70.825c.138-.008.27-.041.41-.041S41.578,70.817,41.716,70.825Zm1.107-9.143V42.817L41.392,40.4l-1.6,2.709V61.682Zm3.034-7.447L48.5,52.408l-2.638-4.46Zm16.688-41.1H34.809L55.593,47.494l6.953-4.812ZM65.581,10.1l0-6.068H17.034V10.1ZM47.375,19.2V16.17H44.341V19.2Zm6.068-3.034H50.409V19.2h3.034Zm6.068,0H56.477V19.2h3.034Z" transform="translate(-13.999 -0.999)"/></svg>