<svg xmlns="http://www.w3.org/2000/svg" width="94.057" height="93.115" viewBox="0 0 94.057 93.115"><defs><style>.a{fill:#3292e1;}</style></defs><path class="a" d="M62.12,39.844l-.877-2.9c.953-.287,1.918-.613,2.869-.971l1.063,2.841C64.164,39.192,63.135,39.539,62.12,39.844Zm-6.507,5.575V41.341c1.126-.181,2.256-.4,3.377-.66l-.684-2.957c-1.462.34-2.945.607-4.405.8L52.58,38.7v6.722c0,.407.009.812.03,1.215l3.031-.155c-.018-.353-.027-.705-.027-1.062Zm-18.2-17.112a9.1,9.1,0,1,1-9.1-9.1A9.111,9.111,0,0,1,37.409,28.307Zm-3.034,0a6.068,6.068,0,1,0-6.068,6.068A6.074,6.074,0,0,0,34.375,28.307Zm53.106,4.55,1.508.009V45.419A31.485,31.485,0,0,1,68.267,74.93l-.517.187-.517-.187A31.485,31.485,0,0,1,46.511,45.419V32.866l1.508-.009a40.545,40.545,0,0,0,19.009-4.871l.724-.393.724.393a40.556,40.556,0,0,0,19.006,4.871Zm-1.526,3a43.62,43.62,0,0,1-18.2-4.82,43.615,43.615,0,0,1-18.206,4.82v9.565a28.442,28.442,0,0,0,18.2,26.465,28.445,28.445,0,0,0,18.2-26.465ZM64.716,50.434,76.852,38.3l6.7,6.7L64.716,63.827l-9.73-9.73,6.7-6.7Zm12.136-7.846L64.716,54.725l-3.034-3.034L59.276,54.1l5.44,5.44L79.258,44.994Zm10.879-15.8h7.326V45.419a37.416,37.416,0,0,1-7.509,22.407l5.1,18.713L85.16,84.665l-5.669,9.45L74.4,78.855a36.933,36.933,0,0,1-6.226,2.486l-.428.126-.428-.126A36.933,36.933,0,0,1,61.1,78.855L56.01,94.115l-5.669-9.45-7.491,1.874,5.1-18.713a37.555,37.555,0,0,1-7.2-17.871l-.7-.432A24.114,24.114,0,0,1,35,51.618l-.941,4H22.554l-.941-4a24.114,24.114,0,0,1-5.055-2.1l-3.494,2.163L4.929,43.549l2.163-3.494A24.114,24.114,0,0,1,5,35l-4-.941V22.554l4-.941a24.114,24.114,0,0,1,2.1-5.055L4.929,13.065l8.136-8.136,3.494,2.163A24.114,24.114,0,0,1,21.614,5l.941-4H34.059L35,5a24.114,24.114,0,0,1,5.055,2.1l3.494-2.163,8.136,8.136-2.163,3.494a24.114,24.114,0,0,1,2.1,5.055l4,.941v3.324A34.292,34.292,0,0,0,66.856,21.01l.836-.557.891.517A34.351,34.351,0,0,0,87.731,26.79ZM40.477,46.214c-.006-.265-.033-.528-.033-.795V41.856A18.2,18.2,0,1,1,46.434,26.79h1.335a34.512,34.512,0,0,0,4.811-.344v-1.49l-3.448-.812-.221-.9a21.055,21.055,0,0,0-2.453-5.921l-.482-.793,1.864-3.013L43.1,8.775l-3.013,1.864-.793-.482A21.055,21.055,0,0,0,33.374,7.7l-.9-.221-.813-3.448h-6.7l-.812,3.448-.9.221a21.055,21.055,0,0,0-5.921,2.453l-.793.482L13.513,8.775,8.775,13.513l1.864,3.013-.482.793A21.055,21.055,0,0,0,7.7,23.24l-.221.9-3.448.813v6.7l3.448.812.221.9a21.055,21.055,0,0,0,2.453,5.921l.482.793L8.775,43.1l4.738,4.738,3.013-1.864.793.482a21.056,21.056,0,0,0,5.921,2.453l.9.221.813,3.45h6.7l.812-3.448.9-.221a21.056,21.056,0,0,0,5.921-2.453l.793-.482ZM43.4,26.79a15.208,15.208,0,1,0-2.957,10.587V26.79Zm15,50.557a37.588,37.588,0,0,1-8.077-6.689L47.141,82.336l4.645-1.161L55.219,86.9ZM85.176,70.66A37.589,37.589,0,0,1,77.1,77.348l3.183,9.55,3.433-5.721,4.645,1.161Zm6.846-40.836H87.731a37.3,37.3,0,0,1-19.983-5.777,37.339,37.339,0,0,1-19.979,5.777H43.477v15.6A34.607,34.607,0,0,0,67.75,78.3,34.607,34.607,0,0,0,92.023,45.419Z" transform="translate(-1 -0.999)"/></svg>